<svg width="900" height="394" viewBox="0 0 900 394" fill="none" xmlns="http://www.w3.org/2000/svg">
  <rect width="900" height="394" fill="#0D1117"/>
  <rect x="54" y="52" width="792" height="290" rx="18" fill="#161B22" stroke="#30363D"/>
  <path d="M116 276H792" stroke="#30363D" stroke-width="3"/>
  <path d="M116 222H792" stroke="#30363D" stroke-width="3"/>
  <path d="M116 168H792" stroke="#30363D" stroke-width="3"/>
  <path d="M116 114H792" stroke="#30363D" stroke-width="3"/>
  <rect x="146" y="214" width="58" height="62" rx="8" fill="#3FB950"/>
  <rect x="238" y="180" width="58" height="96" rx="8" fill="#58A6FF"/>
  <rect x="330" y="146" width="58" height="130" rx="8" fill="#D29922"/>
  <rect x="422" y="121" width="58" height="155" rx="8" fill="#DB61A2"/>
  <rect x="514" y="96" width="58" height="180" rx="8" fill="#F78166"/>
  <path d="M620 238C662 204 692 176 733 132" stroke="#58A6FF" stroke-width="12" stroke-linecap="round"/>
  <circle cx="620" cy="238" r="12" fill="#58A6FF"/>
  <circle cx="733" cy="132" r="12" fill="#58A6FF"/>
</svg>
